<svg width="229" height="136" viewBox="0 0 229 136" fill="none" xmlns="http://www.w3.org/2000/svg">
<rect width="229" height="136" fill="#F5F5F5"/>
<g clip-path="url(#clip0_0_1)">
<path d="M53.8723 118.343C53.2846 123.851 51.2339 128.93 48.9474 133.816C48.8343 134.06 48.721 134.3 48.6047 134.544H18.9828C18.4564 134.322 17.939 134.078 17.4249 133.816C15.5296 132.868 13.7298 131.67 12.0594 130.244C2.42417 121.987 -1.28533 106.383 0.391954 92.4032C1.42944 83.713 4.63709 74.8444 10.878 70.1661C14.2668 67.7134 18.3086 66.871 22.1966 67.807C22.2976 67.8288 22.3987 67.8543 22.4997 67.8835C25.7623 68.7572 28.67 70.927 30.3259 74.4257C33.301 80.7131 31.5289 88.5004 30.0657 95.4978C28.6058 102.499 27.8162 110.872 32.0491 116.035C31.4281 113.876 31.3017 111.56 31.6827 109.325C32.0637 107.089 32.9384 105.014 34.217 103.314C35.4955 101.614 37.1317 100.349 38.9573 99.6508C40.7829 98.9521 42.7321 98.8443 44.6043 99.3387C44.9103 99.4151 45.2134 99.5025 45.5134 99.6117C46.2323 99.8621 46.9253 100.208 47.5794 100.642C52.5714 103.959 54.5914 111.597 53.8723 118.343Z" fill="#F2F2F2"/>
<path d="M34.5589 133.816C35.22 134.081 35.8872 134.322 36.5575 134.544H33.659C33.1203 134.318 32.5856 134.075 32.0551 133.816C31.9389 133.761 31.8194 133.703 31.7032 133.644C27.3294 131.464 23.3015 128.187 20.256 123.826C18.7637 121.715 17.5462 119.351 16.6444 116.81C15.6636 113.941 15.0408 110.916 14.7957 107.832C14.2447 101.505 14.8049 95.0027 15.8577 88.7881C16.9438 82.3465 18.6978 76.0902 21.0794 70.1625C21.3671 69.4526 21.6629 68.7463 21.967 68.0437C21.9884 67.9867 22.0201 67.936 22.0597 67.8951C22.0994 67.8542 22.1461 67.8242 22.1965 67.807C22.2488 67.7953 22.3025 67.796 22.3545 67.8091C22.4065 67.8223 22.4558 67.8475 22.4996 67.8835C22.6048 67.9552 22.6829 68.0722 22.7176 68.2105C22.7524 68.3487 22.7412 68.4975 22.6863 68.6262C20.2316 74.3193 18.3711 80.3481 17.1463 86.5782C15.9465 92.6581 15.264 99.0183 15.4997 105.266C15.7199 111.105 17.0025 116.847 19.9132 121.623C22.6241 125.963 26.1905 129.444 30.2983 131.759C31.6789 132.555 33.1022 133.242 34.5589 133.816V133.816Z" fill="white"/>
<path d="M46.2417 134.544H45.1184C44.9592 134.303 44.8062 134.06 44.6562 133.816C42.4465 130.244 40.9402 126.127 40.2487 121.769C39.3067 115.665 40.0408 109.364 42.3424 103.795C42.9852 102.234 43.742 100.742 44.6041 99.3387C44.9102 99.4151 45.2133 99.5025 45.5133 99.6117C43.2425 103.189 41.7154 107.354 41.0568 111.768C40.5083 115.629 40.642 119.583 41.4493 123.379C42.2566 127.175 43.7199 130.729 45.7458 133.816C45.9081 134.063 46.0734 134.307 46.2417 134.544Z" fill="white"/>
<path d="M103.665 67.8102C103.784 67.2564 103.8 66.6781 103.711 66.1162C103.623 65.5542 103.431 65.0222 103.151 64.5577C102.871 64.0931 102.509 63.7073 102.089 63.4274C101.67 63.1475 101.205 62.9804 100.725 62.9377L82.0193 35.1196L77.3908 40.2509L97.1515 66.8237C97.1446 67.7863 97.4348 68.7184 97.9671 69.4436C98.4994 70.1687 99.2369 70.6363 100.04 70.7579C100.843 70.8795 101.655 70.6466 102.323 70.1033C102.991 69.56 103.468 68.7441 103.665 67.8102V67.8102Z" fill="#FFB8B8"/>
<path d="M85.6078 39.5385L79.6961 44.9236C79.5279 45.0769 79.3339 45.1852 79.1273 45.2412C78.9208 45.2972 78.7065 45.2995 78.4991 45.2482C78.2917 45.1968 78.096 45.0928 77.9254 44.9434C77.7548 44.7939 77.6133 44.6025 77.5105 44.3821L73.9094 36.6606C73.2553 35.6325 72.9706 34.3379 73.1177 33.0605C73.2648 31.7831 73.8318 30.6272 74.6943 29.8463C75.5568 29.0654 76.6445 28.7232 77.7188 28.8946C78.7931 29.0661 79.7664 29.7373 80.4253 30.761L85.7379 36.8876C85.89 37.0631 86.0085 37.2755 86.0853 37.5103C86.1622 37.7452 86.1955 37.9969 86.1832 38.2485C86.1708 38.5001 86.113 38.7455 86.0137 38.9682C85.9145 39.1908 85.776 39.3853 85.6078 39.5385H85.6078Z" fill="#CCCCCC"/>
<path d="M75.6797 22.745C79.8315 22.745 83.1972 18.7416 83.1972 13.8032C83.1972 8.86477 79.8315 4.86139 75.6797 4.86139C71.5279 4.86139 68.1622 8.86477 68.1622 13.8032C68.1622 18.7416 71.5279 22.745 75.6797 22.745Z" fill="#FFB8B8"/>
<path d="M91.7267 129.791H95.4792L95.1217 121.437L89.5836 121.438L91.7267 129.791Z" fill="#FFB8B8"/>
<path d="M90.7696 128.334L98.1594 128.334H98.1597C98.7781 128.334 99.3905 128.479 99.9619 128.76C100.533 129.042 101.052 129.454 101.49 129.974C101.927 130.495 102.274 131.112 102.511 131.792C102.747 132.471 102.869 133.2 102.869 133.935V134.117L90.7698 134.118L90.7696 128.334Z" fill="#2F2E41"/>
<path d="M51.7189 123.472L54.9112 125.818L58.2985 118.487L54.4353 115.612L51.7189 123.472Z" fill="#FFB8B8"/>
<path d="M51.5485 121.634L57.8355 126.253L57.8358 126.253C58.3619 126.64 58.8189 127.146 59.1806 127.743C59.5423 128.339 59.8017 129.015 59.9439 129.731C60.0861 130.447 60.1084 131.189 60.0094 131.915C59.9105 132.641 59.6923 133.337 59.3672 133.963L59.2868 134.118L48.9931 126.555L51.5485 121.634Z" fill="#2F2E41"/>
<path d="M91.4555 127.342C91.1765 127.342 90.9042 127.241 90.6747 127.052C90.4452 126.863 90.2694 126.596 90.1706 126.286L76.5974 87.6853C76.5682 87.591 76.5177 87.5082 76.4515 87.4458C76.3852 87.3835 76.3058 87.344 76.2219 87.3319C76.1381 87.3198 76.053 87.3354 75.9762 87.3771C75.8993 87.4187 75.8335 87.4848 75.7862 87.568L57.1392 122.508C56.9568 122.833 56.6823 123.07 56.3655 123.175C56.0488 123.28 55.7109 123.246 55.4134 123.079L52.862 121.663C52.5352 121.48 52.2816 121.151 52.1556 120.749C52.0296 120.346 52.0411 119.9 52.1877 119.508L67.4646 79.0022C67.1311 78.0369 63.8774 68.1254 68.8765 63.2286L68.9115 63.2027L82.4673 56.0103L82.8091 68.3792L96.3205 124.141C96.3714 124.351 96.3865 124.571 96.3649 124.788C96.3433 125.005 96.2855 125.214 96.1949 125.404C96.1042 125.594 95.9825 125.76 95.837 125.894C95.6915 126.027 95.5251 126.124 95.3475 126.179L91.8084 127.287C91.6932 127.324 91.5746 127.342 91.4555 127.342V127.342Z" fill="#2F2E41"/>
<path d="M82.6724 37.9172C82.1562 35.453 81.4245 32.9692 80.444 31.8226C80.0834 31.4044 79.7446 30.9606 79.4294 30.4935C78.7699 29.5053 77.9401 28.6965 76.9958 28.1216C77.3414 27.8929 77.5439 27.6202 77.5439 27.3266C77.5439 26.5224 76.0365 25.8704 74.1771 25.8704C72.3176 25.8704 70.8102 26.5224 70.8102 27.3266C70.8148 27.42 70.8348 27.5115 70.8692 27.5957C70.9035 27.6798 70.9515 27.7551 71.0104 27.8172C69.7961 28.4059 68.741 29.3797 67.96 30.6325C67.179 31.8853 66.7019 33.369 66.5809 34.922C66.1461 40.4615 66.0191 47.5425 67.543 52.0214C68.8213 55.7252 68.9229 59.8556 67.829 63.6419C67.7548 63.9056 67.7458 64.1891 67.8029 64.4587C67.86 64.7283 67.9809 64.9728 68.1513 65.1631C68.3216 65.3535 68.5343 65.4818 68.764 65.5329C68.9938 65.5839 69.2311 65.5555 69.4477 65.4511L82.8987 59.0037C83.1251 58.8952 83.3191 58.7086 83.4557 58.4679C83.5924 58.2272 83.6654 57.9434 83.6654 57.653V47.8607C83.6761 44.5104 83.3427 41.1712 82.6724 37.9172V37.9172Z" fill="#CCCCCC"/>
<path d="M56.9361 78.2486C57.4044 78.1192 57.8431 77.8693 58.2213 77.5165C58.5996 77.1637 58.9082 76.7165 59.1254 76.2065C59.3427 75.6964 59.4633 75.1359 59.4787 74.5644C59.4941 73.993 59.404 73.4244 59.2147 72.8988L69.739 39.8869L64.402 38.2478L54.6676 70.9199C53.9464 71.3566 53.3849 72.0929 53.0896 72.9892C52.7942 73.8854 52.7856 74.8794 53.0652 75.7828C53.3448 76.6861 53.8933 77.4361 54.6068 77.8905C55.3202 78.345 56.149 78.4724 56.9361 78.2486V78.2486Z" fill="#FFB8B8"/>
<path d="M69.6951 46.1508L62.9512 42.396C62.7594 42.2892 62.5891 42.1344 62.452 41.9422C62.315 41.75 62.2143 41.525 62.157 41.2824C62.0997 41.0398 62.0869 40.7854 62.1197 40.5364C62.1525 40.2874 62.23 40.0498 62.347 39.8397L66.4455 32.4773C66.911 31.3135 67.7454 30.4166 68.7658 29.9832C69.7862 29.5497 70.9094 29.6151 71.8894 30.1649C72.8694 30.7147 73.6262 31.7041 73.9941 32.9164C74.3619 34.1287 74.3108 35.465 73.8518 36.6325L71.7325 45.0653C71.6718 45.3067 71.568 45.5297 71.4283 45.7192C71.2885 45.9086 71.1161 46.0599 70.9228 46.163C70.7294 46.266 70.5197 46.3182 70.3078 46.3161C70.096 46.314 69.887 46.2576 69.6951 46.1508V46.1508Z" fill="#CCCCCC"/>
<path d="M82.5848 11.6023C82.924 11.6501 83.2674 11.5763 83.571 11.3903C84.1255 10.9587 84.0709 9.97748 83.8833 9.22145C83.4157 7.40914 82.5719 5.76613 81.4297 4.44403C80.2875 3.12193 78.8837 2.16334 77.3479 1.65673C76.2777 1.31841 74.9235 1.33149 74.3113 2.42907C72.7727 1.20995 70.9178 0.687011 69.0828 0.955091C67.2479 1.22317 65.5545 2.26452 64.3097 3.8903C63.0542 5.5301 62.3345 7.66772 61.9616 9.84086C61.3193 13.5843 58.5683 21.3062 60.0922 24.6694C61.1062 26.9074 65.773 25.1637 67.7471 26.1385C69.7211 27.1133 72.1204 27.004 73.8739 25.5502C75.6274 24.0964 76.5484 21.2258 75.7967 18.8458C75.506 17.9254 75.002 17.1261 74.6044 16.2642C74.2067 15.4022 73.9092 14.4058 74.0867 13.4455C74.363 11.9501 80.2965 11.5463 82.5848 11.6023Z" fill="#2F2E41"/>
<path d="M145.997 134.18C145.997 134.228 145.99 134.275 145.974 134.319C145.959 134.363 145.936 134.404 145.908 134.437C145.88 134.471 145.846 134.498 145.809 134.516C145.771 134.535 145.731 134.544 145.691 134.544H0.306074C0.224898 134.544 0.147047 134.505 0.0896468 134.437C0.0322468 134.369 0 134.276 0 134.18C0 134.083 0.0322468 133.991 0.0896468 133.922C0.147047 133.854 0.224898 133.816 0.306074 133.816H145.691C145.731 133.815 145.771 133.825 145.809 133.843C145.846 133.861 145.88 133.888 145.908 133.922C145.936 133.956 145.959 133.996 145.974 134.04C145.99 134.084 145.997 134.132 145.997 134.18V134.18Z" fill="#3F3D56"/>
<path d="M167.989 136C173.905 136 178.701 135.022 178.701 133.816C178.701 132.609 173.905 131.631 167.989 131.631C162.072 131.631 157.276 132.609 157.276 133.816C157.276 135.022 162.072 136 167.989 136Z" fill="#6C63FF"/>
<path d="M228.694 134.704H187.68C187.599 134.704 187.521 134.666 187.464 134.597C187.406 134.529 187.374 134.436 187.374 134.34C187.374 134.243 187.406 134.151 187.464 134.083C187.521 134.014 187.599 133.976 187.68 133.976H228.694C228.775 133.976 228.853 134.014 228.91 134.083C228.968 134.151 229 134.243 229 134.34C229 134.436 228.968 134.529 228.91 134.597C228.853 134.666 228.775 134.704 228.694 134.704Z" fill="#3F3D56"/>
<path d="M160.026 39.0515C160.027 35.0852 161.17 31.239 163.266 28.1539C165.362 25.0689 168.283 22.9315 171.543 22.098C169.417 21.5554 167.217 21.5852 165.102 22.1851C162.987 22.7851 161.012 23.9401 159.321 25.5655C157.631 27.1909 156.267 29.2455 155.33 31.579C154.393 33.9124 153.907 36.4656 153.907 39.0515C153.907 41.6374 154.393 44.1906 155.33 46.5241C156.267 48.8575 157.631 50.9122 159.321 52.5376C161.012 54.163 162.987 55.3179 165.102 55.9179C167.217 56.5179 169.417 56.5476 171.543 56.005C168.283 55.1715 165.362 53.0341 163.266 49.9491C161.17 46.8641 160.027 43.0178 160.026 39.0515V39.0515Z" fill="#6C63FF"/>
<path d="M144.161 39.0515C144.162 29.5916 147.07 20.4585 152.339 13.3725C157.608 6.2866 164.874 1.73697 172.767 0.580692C168.187 -0.0871981 163.54 0.409238 159.133 2.03716C154.726 3.66509 150.66 6.3874 147.203 10.024C143.747 13.6607 140.979 18.1288 139.083 23.1328C137.186 28.1368 136.205 33.5627 136.203 39.0515C136.203 56.4377 157.699 105.466 165.773 123.267C166.066 123.915 166.501 124.456 167.032 124.833C167.563 125.21 168.17 125.41 168.788 125.41C169.407 125.41 170.014 125.21 170.545 124.833C171.076 124.456 171.511 123.915 171.804 123.267C172.106 122.601 172.429 121.886 172.767 121.135C164.076 101.835 144.161 55.787 144.161 39.0515Z" fill="#6C63FF"/>
<path d="M168.816 125.845C168.141 125.852 167.478 125.637 166.899 125.226C166.319 124.814 165.846 124.221 165.531 123.511C156.629 103.884 135.925 56.3709 135.925 39.1231C135.925 28.747 139.391 18.7959 145.559 11.4589C151.727 4.12188 160.093 0 168.816 0C177.54 0 185.906 4.12188 192.074 11.4589C198.242 18.7959 201.708 28.747 201.708 39.1231C201.708 56.3725 181.003 103.884 172.101 123.511C171.786 124.221 171.313 124.814 170.734 125.226C170.154 125.637 169.491 125.852 168.816 125.845V125.845ZM168.816 0.72813C160.258 0.739611 152.054 4.78848 146.002 11.9864C139.951 19.1844 136.547 28.9437 136.537 39.1231C136.537 56.205 157.19 103.587 166.07 123.166C166.337 123.756 166.733 124.248 167.217 124.592C167.7 124.936 168.253 125.117 168.816 125.117C169.38 125.117 169.932 124.936 170.416 124.592C170.899 124.248 171.296 123.756 171.563 123.166C180.443 103.587 201.096 56.2066 201.096 39.1231C201.086 28.9437 197.682 19.1844 191.631 11.9864C185.579 4.78848 177.374 0.739614 168.816 0.72813V0.72813Z" fill="#3F3D56"/>
<path d="M168.816 56.8266C165.873 56.8267 162.995 55.7884 160.547 53.8432C158.1 51.8979 156.192 49.133 155.066 45.8981C153.939 42.6631 153.644 39.1035 154.219 35.6693C154.793 32.2351 156.21 29.0806 158.292 26.6047C160.373 24.1288 163.025 22.4427 165.913 21.7596C168.8 21.0765 171.792 21.427 174.512 22.767C177.232 24.1069 179.556 26.3761 181.192 29.2874C182.827 32.1988 183.7 35.6216 183.7 39.1231C183.695 43.8167 182.126 48.3166 179.336 51.6355C176.546 54.9544 172.762 56.8213 168.816 56.8266V56.8266ZM168.816 22.1475C165.994 22.1475 163.235 23.143 160.888 25.0083C158.541 26.8735 156.711 29.5247 155.631 32.6266C154.551 35.7284 154.268 39.1416 154.819 42.4346C155.37 45.7275 156.729 48.7523 158.725 51.1264C160.721 53.5005 163.263 55.1173 166.032 55.7723C168.8 56.4273 171.67 56.0912 174.278 54.8064C176.885 53.5216 179.114 51.3458 180.683 48.5542C182.251 45.7626 183.088 42.4806 183.088 39.1231C183.084 34.6225 181.579 30.3077 178.903 27.1253C176.228 23.9428 172.6 22.1527 168.816 22.1475V22.1475Z" fill="#3F3D56"/>
</g>
<defs>
<clipPath id="clip0_0_1">
<rect width="229" height="136" fill="white"/>
</clipPath>
</defs>
</svg>
